<svg width="54" height="53" viewBox="0 0 54 53" fill="none" xmlns="http://www.w3.org/2000/svg">
<path d="M37.8013 36.0923C39.4715 36.0923 40.8253 34.7634 40.8253 33.1242C40.8253 31.4851 39.4715 30.1562 37.8013 30.1562C36.1312 30.1562 34.7773 31.4851 34.7773 33.1242C34.7773 34.7634 36.1312 36.0923 37.8013 36.0923Z" fill="#232323"/>
<path fill-rule="evenodd" clip-rule="evenodd" d="M37.7941 38.4219C35.8231 38.4219 31.8811 39.3759 31.7461 41.2839C33.0961 43.1654 35.3101 44.3844 37.7941 44.3844C40.2781 44.3844 42.4921 43.1654 43.8421 41.2839C43.7071 39.3759 39.7651 38.4219 37.7941 38.4219Z" fill="#232323"/>
<path fill-rule="evenodd" clip-rule="evenodd" d="M40.5 21.4385V8.6655L20.25 0L0 8.6655V21.677C0 33.708 8.64 44.9705 20.25 47.7C21.735 47.3555 23.166 46.852 24.57 46.2425C26.0576 48.3315 28.0373 50.0368 30.3408 51.2134C32.6443 52.3899 35.2033 53.0028 37.8 53C46.737 53 54 45.8715 54 37.1C54 29.2295 48.168 22.7105 40.5 21.4385ZM21.6 37.1C21.6 38.584 21.816 40.0415 22.221 41.393C21.573 41.6845 20.925 41.976 20.25 42.188C11.691 39.538 5.4 30.952 5.4 21.677V12.137L20.25 5.777L35.1 12.137V21.4385C27.432 22.7105 21.6 29.2295 21.6 37.1ZM37.8 47.7C31.833 47.7 27 42.9565 27 37.1C27 31.2435 31.833 26.5 37.8 26.5C43.767 26.5 48.6 31.2435 48.6 37.1C48.6 42.9565 43.767 47.7 37.8 47.7Z" fill="#232323"/>
</svg>
